#N canvas 71 80 994 538 12;
#X obj 28 76 cnv 19 200 350 empty empty empty 20 12 0 12 #ff8300 #404040 0;
#X obj 41 138 udp-receive;
#X floatatom 41 162 3 0 0 0 - - - 0;
#X floatatom 70 163 3 0 0 0 - - - 0;
#X floatatom 99 163 3 0 0 0 - - - 0;
#X floatatom 128 163 3 0 0 0 - - - 0;
#X floatatom 156 163 3 0 0 0 - - - 0;
#X floatatom 184 163 3 0 255 0 - - - 0;
#X obj 41 87 loadbang;
#X obj 41 194 vsl 21 150 0 255 0 0 empty empty empty 0 -9 0 12 #ffe3c6 #9c00ff #000000 0 1;
#X obj 70 194 vsl 21 150 0 255 0 0 empty empty empty 0 -9 0 12 #ffe3c6 #9c00ff #000000 0 1;
#X obj 99 194 vsl 21 150 0 255 0 0 empty empty empty 0 -9 0 12 #ffe3c6 #9c00ff #000000 0 1;
#X obj 128 194 vsl 21 150 0 255 0 0 empty empty empty 0 -9 0 12 #ffe3c6 #9c00ff #000000 0 1;
#X obj 156 193 vsl 21 150 0 255 0 0 empty empty empty 0 -9 0 12 #ffe3c6 #9c00ff #000000 0 1;
#X obj 184 194 vsl 21 150 0 255 0 0 empty empty empty 0 -9 0 12 #ffe3c6 #9c00ff #000000 0 1;
#N canvas 483 156 771 533 touch 0;
#X floatatom 117 169 5 0 0 0 - - - 0;
#X floatatom 118 121 5 0 0 0 - - - 0;
#X obj 118 145 clip 0 1;
#X obj 117 97 log 200;
#X obj 68 202 synth, f 7;
#X obj 67 100 / 255;
#X obj 67 124 * 127;
#X obj 67 163 + 20;
#X obj 66 67 inlet;
#X obj 76 240 +~;
#X floatatom 238 168 5 0 0 0 - - - 0;
#X floatatom 239 120 5 0 0 0 - - - 0;
#X obj 239 144 clip 0 1;
#X obj 238 96 log 200;
#X obj 189 201 synth, f 7;
#X obj 188 99 / 255;
#X obj 188 123 * 127;
#X obj 188 162 + 20;
#X obj 184 66 inlet;
#X obj 203 236 +~;
#X floatatom 366 163 5 0 0 0 - - - 0;
#X floatatom 367 115 5 0 0 0 - - - 0;
#X obj 367 139 clip 0 1;
#X obj 366 91 log 200;
#X obj 317 196 synth, f 7;
#X obj 316 94 / 255;
#X obj 316 118 * 127;
#X obj 316 157 + 20;
#X obj 315 61 inlet;
#X obj 331 231 +~;
#X floatatom 492 160 5 0 0 0 - - - 0;
#X floatatom 493 112 5 0 0 0 - - - 0;
#X obj 493 136 clip 0 1;
#X obj 492 88 log 200;
#X obj 443 193 synth, f 7;
#X obj 442 91 / 255;
#X obj 442 115 * 127;
#X obj 442 154 + 20;
#X obj 441 58 inlet;
#X obj 457 228 +~;
#X floatatom 620 160 5 0 0 0 - - - 0;
#X floatatom 621 112 5 0 0 0 - - - 0;
#X obj 621 136 clip 0 1;
#X obj 620 88 log 200;
#X obj 571 193 synth, f 7;
#X obj 570 91 / 255;
#X obj 570 115 * 127;
#X obj 570 154 + 20;
#X obj 569 58 inlet;
#X obj 585 228 +~;
#X floatatom 746 160 5 0 0 0 - - - 0;
#X floatatom 747 112 5 0 0 0 - - - 0;
#X obj 747 136 clip 0 1;
#X obj 746 88 log 200;
#X obj 697 193 synth, f 7;
#X obj 696 91 / 255;
#X obj 696 115 * 127;
#X obj 696 154 + 20;
#X obj 695 58 inlet;
#X obj 711 228 +~;
#X obj 136 261 +~;
#X obj 393 264 +~;
#X obj 656 282 +~;
#X obj 255 363 +~;
#X obj 502 343 +~;
#X obj 11 373 inlet;
#N canvas 661 250 586 593 audio-out 0;
#X obj 96 31 inlet~;
#X obj 156 32 inlet gain;
#X obj 95 79 *~ 0.2;
#X obj 93 150 +~;
#X obj 143 126 rev1~;
#X obj 176 77 loadbang;
#X msg 176 99 0.04;
#X obj 143 150 *~ 0.3;
#X obj 95 200 panner;
#X msg 156 178 0.2;
#X obj 97 272 dac~;
#X connect 0 0 2 0;
#X connect 1 0 2 1;
#X connect 2 0 3 0;
#X connect 2 0 4 0;
#X connect 3 0 8 0;
#X connect 4 0 7 0;
#X connect 5 0 6 0;
#X connect 6 0 4 1;
#X connect 6 0 9 0;
#X connect 7 0 3 1;
#X connect 8 0 10 0;
#X connect 8 1 10 1;
#X connect 9 0 8 1;
#X restore 572 435 pd audio-out;
#X connect 0 0 4 3;
#X connect 0 0 4 2;
#X connect 1 0 2 0;
#X connect 2 0 0 0;
#X connect 3 0 1 0;
#X connect 4 0 9 0;
#X connect 4 1 9 1;
#X connect 5 0 6 0;
#X connect 6 0 7 0;
#X connect 7 0 4 0;
#X connect 8 0 4 1;
#X connect 8 0 5 0;
#X connect 8 0 3 0;
#X connect 9 0 60 0;
#X connect 10 0 14 3;
#X connect 10 0 14 2;
#X connect 11 0 12 0;
#X connect 12 0 10 0;
#X connect 13 0 11 0;
#X connect 14 0 19 0;
#X connect 14 1 19 1;
#X connect 15 0 16 0;
#X connect 16 0 17 0;
#X connect 17 0 14 0;
#X connect 18 0 14 1;
#X connect 18 0 15 0;
#X connect 18 0 13 0;
#X connect 19 0 60 1;
#X connect 20 0 24 3;
#X connect 20 0 24 2;
#X connect 21 0 22 0;
#X connect 22 0 20 0;
#X connect 23 0 21 0;
#X connect 24 0 29 0;
#X connect 24 1 29 1;
#X connect 25 0 26 0;
#X connect 26 0 27 0;
#X connect 27 0 24 0;
#X connect 28 0 24 1;
#X connect 28 0 25 0;
#X connect 28 0 23 0;
#X connect 29 0 61 0;
#X connect 30 0 34 3;
#X connect 30 0 34 2;
#X connect 31 0 32 0;
#X connect 32 0 30 0;
#X connect 33 0 31 0;
#X connect 34 0 39 0;
#X connect 34 1 39 1;
#X connect 35 0 36 0;
#X connect 36 0 37 0;
#X connect 37 0 34 0;
#X connect 38 0 34 1;
#X connect 38 0 35 0;
#X connect 38 0 33 0;
#X connect 39 0 61 1;
#X connect 40 0 44 3;
#X connect 40 0 44 2;
#X connect 41 0 42 0;
#X connect 42 0 40 0;
#X connect 43 0 41 0;
#X connect 44 0 49 0;
#X connect 44 1 49 1;
#X connect 45 0 46 0;
#X connect 46 0 47 0;
#X connect 47 0 44 0;
#X connect 48 0 44 1;
#X connect 48 0 45 0;
#X connect 48 0 43 0;
#X connect 49 0 62 0;
#X connect 50 0 54 3;
#X connect 50 0 54 2;
#X connect 51 0 52 0;
#X connect 52 0 50 0;
#X connect 53 0 51 0;
#X connect 54 0 59 0;
#X connect 54 1 59 1;
#X connect 55 0 56 0;
#X connect 56 0 57 0;
#X connect 57 0 54 0;
#X connect 58 0 54 1;
#X connect 58 0 55 0;
#X connect 58 0 53 0;
#X connect 59 0 62 1;
#X connect 60 0 63 0;
#X connect 61 0 63 1;
#X connect 62 0 64 1;
#X connect 63 0 64 0;
#X connect 64 0 66 0;
#X connect 65 0 66 1;
#X restore 40 359 pd touch;
#X f 18;
#X obj 42 387 tgl 30 0 empty empty ON/OFF 33 10 0 12 #ffe3c6 #9c00ff #000000 0 1;
#N canvas 0 22 450 278 (subpatch) 0;
#X array uhData 1.47661e+06 float 2;
#X coords 0 1 1.47661e+06 -1 200 140 1 0 0;
#X restore 374 63 graph;
#X obj 273 154 bng 30 250 50 0 empty empty open\ file 0 -10 0 12 #c7c6ff #000000 #000000;
#X obj 623 200 *~;
#X floatatom 647 173 5 0 1 0 - - - 0;
#X obj 624 238 dac~;
#X obj 375 209 hsl 200 16 0 1.47661e+06 0 0 empty empty empty -2 -10 0 12 #e3c6ff #000000 #000000 0 1;
#X obj 373 228 s start;
#X obj 621 57 bng 30 250 50 0 empty empty play 0 -10 0 12 #00ff04 #000000 #000000;
#X obj 375 252 hsl 200 16 0 1.47661e+06 0 0 empty empty empty -2 -10 0 12 #ffc7c6 #000000 #000000 0 1;
#X obj 372 273 s end;
#X obj 727 110 hsl 162 16 0.1 2 0 0 empty empty speed -2 -10 0 12 #c6feff #000000 #000000 0 1;
#X floatatom 849 133 5 0 0 0 - - - 0;
#N canvas 357 262 450 300 open-file 0;
#X obj 119 30 inlet;
#X obj 120 116 soundfiler;
#X msg 120 87 read -resize \$1 uhData;
#X obj 121 58 openpanel;
#X floatatom 120 140 12 0 0 0 - - - 0;
#X obj 120 163 s end;
#X msg 200 179 range 0 \$1;
#X obj 176 223 outlet;
#X obj 232 224 outlet;
#X connect 0 0 3 0;
#X connect 1 0 4 0;
#X connect 2 0 1 0;
#X connect 3 0 2 0;
#X connect 4 0 5 0;
#X connect 4 0 6 0;
#X connect 6 0 7 0;
#X connect 6 0 8 0;
#X restore 274 189 pd open-file;
#N canvas 295 177 902 490 play-back 0;
#X obj 63 31 inlet;
#X obj 362 39 inlet;
#X obj 60 335 outlet~;
#X obj 60 277 tabread4~ uhData;
#X obj 61 243 vline~;
#X msg 61 213 \$1 \, \$2 \$3;
#X obj 62 180 pack f f f;
#X obj 95 105 r end;
#X obj 304 60 r end;
#X floatatom 154 117 10 0 0 0 - - - 0;
#X obj 154 13 r start;
#X obj 62 121 f;
#X msg 171 213 stop;
#X msg 229 211 \$1 100;
#X obj 227 182 r start;
#X obj 154 86 expr abs($f2 - $f1) / 44.1;
#X obj 289 183 r end;
#X obj 154 147 / 1;
#X obj 364 88 hsl 162 16 0.1 2 0 0 empty empty speed -2 -10 0 12 #c6feff #000000 #000000 0 1;
#X floatatom 409 110 5 0 0 0 - - - 0;
#X obj 361 109 t b f;
#X obj 171 188 inlet;
#X obj 200 307 snapshot~;
#X floatatom 201 337 6 0 0 0 - - - 0;
#X obj 292 298 metro 200;
#X obj 292 271 loadbang;
#X obj 292 326 s bang;
#X obj 199 280 r bang;
#X obj 200 369 s pause;
#X floatatom 155 56 5 0 0 0 - - - 0;
#X connect 0 0 11 0;
#X connect 1 0 18 0;
#X connect 3 0 2 0;
#X connect 3 0 22 0;
#X connect 4 0 3 0;
#X connect 5 0 4 0;
#X connect 6 0 5 0;
#X connect 7 0 6 1;
#X connect 8 0 15 1;
#X connect 9 0 17 0;
#X connect 10 0 11 1;
#X connect 10 0 29 0;
#X connect 11 0 6 0;
#X connect 12 0 4 0;
#X connect 13 0 4 0;
#X connect 14 0 13 0;
#X connect 15 0 9 0;
#X connect 16 0 13 0;
#X connect 17 0 6 2;
#X connect 18 0 17 1;
#X connect 18 0 19 0;
#X connect 18 0 20 0;
#X connect 20 0 17 0;
#X connect 20 1 17 1;
#X connect 21 0 12 0;
#X connect 22 0 23 0;
#X connect 23 0 28 0;
#X connect 24 0 26 0;
#X connect 25 0 24 0;
#X connect 27 0 22 0;
#X connect 29 0 15 0;
#X restore 622 109 pd play-back;
#X obj 651 154 hsl 162 16 0 1 0 0 empty empty volume -2 -10 0 12 #c6ffc7 #000000 #000000 0 1;
#X obj 665 56 bng 30 250 50 0 empty empty stop 0 -10 0 12 #ff0400 #000000 #000000;
#X obj 702 47 r t5;
#X obj 702 71 sel 1 0;
#X obj 505 341 udp-receive;
#X floatatom 505 371 3 0 0 0 - - - 0;
#X floatatom 534 372 3 0 0 0 - - - 0;
#X floatatom 563 372 3 0 0 0 - - - 0;
#X floatatom 592 372 3 0 0 0 - - - 0;
#X floatatom 620 372 3 0 0 0 - - - 0;
#X floatatom 648 372 3 0 255 0 - - - 0;
#X obj 505 290 loadbang;
#X msg 505 315 7401;
#X obj 620 395 s t5;
#X msg 41 112 7301;
#X connect 1 0 2 0;
#X connect 1 1 3 0;
#X connect 1 2 4 0;
#X connect 1 3 5 0;
#X connect 1 4 6 0;
#X connect 1 5 7 0;
#X connect 2 0 9 0;
#X connect 3 0 10 0;
#X connect 4 0 11 0;
#X connect 5 0 12 0;
#X connect 6 0 13 0;
#X connect 7 0 14 0;
#X connect 8 0 45 0;
#X connect 9 0 15 1;
#X connect 10 0 15 2;
#X connect 11 0 15 3;
#X connect 12 0 15 4;
#X connect 13 0 15 5;
#X connect 14 0 15 6;
#X connect 16 0 15 0;
#X connect 18 0 29 0;
#X connect 19 0 21 0;
#X connect 19 0 21 1;
#X connect 20 0 19 1;
#X connect 22 0 23 0;
#X connect 24 0 30 0;
#X connect 25 0 26 0;
#X connect 27 0 28 0;
#X connect 27 0 30 2;
#X connect 29 0 25 0;
#X connect 29 1 22 0;
#X connect 30 0 19 0;
#X connect 31 0 20 0;
#X connect 32 0 30 1;
#X connect 33 0 34 0;
#X connect 34 0 30 0;
#X connect 34 1 30 1;
#X connect 35 0 36 0;
#X connect 35 1 37 0;
#X connect 35 2 38 0;
#X connect 35 3 39 0;
#X connect 35 4 40 0;
#X connect 35 5 41 0;
#X connect 40 0 44 0;
#X connect 42 0 43 0;
#X connect 43 0 35 0;
#X connect 45 0 1 0;
